<svg id="reverse_logo" data-name="reverse logo" xmlns="http://www.w3.org/2000/svg" width="578" height="135.67" viewBox="0 0 578 135.67"><defs><style>.cls-1{fill:#b3713e;}</style></defs><title>Artboard 1</title><path d="M229.7,51.87V31.66h4.91V51.87Z"/><path d="M253.34,51.51a10.82,10.82,0,0,1-4.54.9,11.83,11.83,0,0,1-4.32-.77,10,10,0,0,1-5.72-5.57,11.84,11.84,0,0,1,0-8.73A9.77,9.77,0,0,1,241.09,34a10.3,10.3,0,0,1,3.48-2.13,12.48,12.48,0,0,1,8.52,0,8.07,8.07,0,0,1,3.35,2.21l-3.31,3.31a4.1,4.1,0,0,0-1.8-1.4,6,6,0,0,0-2.28-.46,5.78,5.78,0,0,0-2.35.47,5.53,5.53,0,0,0-1.84,1.3,5.93,5.93,0,0,0-1.2,2,6.9,6.9,0,0,0-.43,2.47,7.1,7.1,0,0,0,.43,2.51,5.85,5.85,0,0,0,1.18,2,5.33,5.33,0,0,0,1.81,1.27A5.76,5.76,0,0,0,249,48a5.38,5.38,0,0,0,2.54-.57A4.93,4.93,0,0,0,253.24,46l3.4,3.2A9.62,9.62,0,0,1,253.34,51.51Z"/><path d="M272.15,51.87V43.42h-7.88v8.45h-4.88V31.66h4.88v7.65h7.88V31.66H277V51.87Z"/><path d="M295.55,51.87l-1.57-4h-7.82l-1.48,4h-5.31l8.48-20.21h4.74L301,51.87Zm-5.42-14.81L287.56,44h5.08Z"/><path d="M303.32,51.87V31.66h13.59v4.11H308V39.6h8.39v3.91H308v4.2h9.39v4.17Z"/><path d="M320.73,51.87V31.66h4.91v16h7.82v4.25Z"/><path d="M363.52,41.71a10,10,0,0,1-1,4.58,9.25,9.25,0,0,1-2.6,3.17,10.85,10.85,0,0,1-3.64,1.83,14.75,14.75,0,0,1-4.11.58h-7.54V31.66H352a18.09,18.09,0,0,1,4.22.5,10.6,10.6,0,0,1,3.71,1.66,8.48,8.48,0,0,1,2.63,3.1A10.4,10.4,0,0,1,363.52,41.71Zm-5.08,0a6.4,6.4,0,0,0-.56-2.84,4.79,4.79,0,0,0-1.48-1.8,6,6,0,0,0-2.11-1,10.4,10.4,0,0,0-2.44-.29h-2.43V47.65h2.31a10.51,10.51,0,0,0,2.53-.3,6,6,0,0,0,2.14-1,4.88,4.88,0,0,0,1.48-1.83A6.42,6.42,0,0,0,358.44,41.71Z"/><path d="M369.4,49.36a2.64,2.64,0,0,1-.84,2,2.82,2.82,0,0,1-2,.8,3,3,0,0,1-2.06-.8,2.71,2.71,0,0,1-.63-.87,2.61,2.61,0,0,1-.23-1.1,2.64,2.64,0,0,1,.23-1.08,2.84,2.84,0,0,1,.63-.9,3.09,3.09,0,0,1,.93-.61,2.92,2.92,0,0,1,3.14.57A2.64,2.64,0,0,1,369.4,49.36Z"/><path d="M396.66,51.51a10.82,10.82,0,0,1-4.54.9,11.83,11.83,0,0,1-4.32-.77,10,10,0,0,1-5.72-5.57,11.84,11.84,0,0,1,0-8.73A9.77,9.77,0,0,1,384.42,34a10.31,10.31,0,0,1,3.48-2.13,12.48,12.48,0,0,1,8.52,0,8.07,8.07,0,0,1,3.35,2.21l-3.31,3.31a4.1,4.1,0,0,0-1.8-1.4,6,6,0,0,0-2.28-.46A5.79,5.79,0,0,0,390,36a5.53,5.53,0,0,0-1.84,1.3,5.94,5.94,0,0,0-1.2,2,6.91,6.91,0,0,0-.43,2.47,7.11,7.11,0,0,0,.43,2.51,5.85,5.85,0,0,0,1.19,2,5.32,5.32,0,0,0,1.85,1.2,5.75,5.75,0,0,0,2.31.46,5.38,5.38,0,0,0,2.54-.57,4.93,4.93,0,0,0,1.74-1.48l3.4,3.2A9.62,9.62,0,0,1,396.66,51.51Z"/><path d="M416.07,51.87l-1.57-4h-7.82l-1.48,4h-5.31l8.48-20.21h4.74l8.39,20.21Zm-5.42-14.81L408.08,44h5.08Z"/><path d="M434.08,51.87l-4.39-8H428v8h-4.77V31.66H431a13.39,13.39,0,0,1,2.84.3,7.38,7.38,0,0,1,2.48,1,5.3,5.3,0,0,1,1.76,1.88,5.89,5.89,0,0,1,.66,2.91,5.37,5.37,0,0,1-1.11,3.45,6.07,6.07,0,0,1-3.08,2l5.28,8.65Zm-.2-14a2,2,0,0,0-.3-1.16,2.07,2.07,0,0,0-.77-.69,3.41,3.41,0,0,0-1.06-.33,7.86,7.86,0,0,0-1.13-.09H428v4.71h2.32a7.85,7.85,0,0,0,1.23-.1,3.94,3.94,0,0,0,1.15-.36,2.07,2.07,0,0,0,1.18-2Z"/><path d="M450.67,43.31v8.56h-4.88V43.31L438.2,31.66h5.91l4.31,7.48,4.31-7.48h5.71Z"/><path d="M469.79,31.66h6.94a13.7,13.7,0,0,1,3.88.57,10.43,10.43,0,0,1,3.51,1.8,9.21,9.21,0,0,1,2.54,3.14,10.06,10.06,0,0,1,1,4.6,9.77,9.77,0,0,1-1,4.5,9.39,9.39,0,0,1-2.54,3.14,10.91,10.91,0,0,1-3.51,1.86,12.8,12.8,0,0,1-3.88.61h-6.94Zm2.83,17.73h3.54a10.74,10.74,0,0,0,3.38-.51,7.83,7.83,0,0,0,2.68-1.48A6.65,6.65,0,0,0,484,45a7.93,7.93,0,0,0,.63-3.23,8.15,8.15,0,0,0-.63-3.31,6.52,6.52,0,0,0-1.75-2.38,7.77,7.77,0,0,0-2.68-1.46,11,11,0,0,0-3.38-.5h-3.54Z"/><path d="M501.48,47.19h.06l6-15.53h4.4V51.87h-2.83V35H509l-6.71,16.9h-1.8L493.83,35h-.06V51.9H491V31.66h4.4Z"/><path d="M516.32,31.66h6.94a13.7,13.7,0,0,1,3.88.57,10.43,10.43,0,0,1,3.51,1.8,9.21,9.21,0,0,1,2.54,3.14,10.06,10.06,0,0,1,1,4.6,9.77,9.77,0,0,1-1,4.5,9.39,9.39,0,0,1-2.54,3.14,10.91,10.91,0,0,1-3.51,1.86,12.8,12.8,0,0,1-3.88.61h-6.94Zm2.83,17.73h3.54a10.74,10.74,0,0,0,3.38-.51,7.83,7.83,0,0,0,2.68-1.48A6.65,6.65,0,0,0,530.5,45a7.93,7.93,0,0,0,.63-3.23,8.15,8.15,0,0,0-.63-3.31,6.52,6.52,0,0,0-1.75-2.38,7.77,7.77,0,0,0-2.68-1.46,11,11,0,0,0-3.38-.5h-3.54Z"/><path d="M82.68,119.91c-.12.33-.34.33-.58.1-.46-.42-.77-1.57-.31-3.27a35.55,35.55,0,0,1,1.9-4.73,83.46,83.46,0,0,1,.89-12.08c.09-.52.37-.56.64-.36.74.49,1.2,1.44,1.07,3.79-.09,1.83-.34,4-.46,6.4,2.85-3.36,7.18-7.87,9.6-10.16.34-.29.55-.2.64.16.25.95-.06,2.38-1.87,4.28-2.21,2.29-4.85,4.77-8.62,9.11A45.2,45.2,0,0,0,82.68,119.91Z"/><path d="M109.71,120.13c-2,0-2.76-1.31-2.52-3.2-1.07,1.5-2.64,3.23-4.39,3.07-2.18-.2-2.24-2.58-1.56-4.74a17.08,17.08,0,0,1,1.17-2.81,5.12,5.12,0,0,1-2.76.59c-.71,2.74-2.58,6-4.76,6.76a3.28,3.28,0,0,1-3.9-1.44c-1.35-1.93-.89-4.74.46-7.35,1.17-2.25,3.07-4.08,4.91-4.21a2.1,2.1,0,0,1,2.09,1.11c.74,1,1.6,1.18,1.44,3.59a5.83,5.83,0,0,1-.06.65c1.75,0,3.44-1.57,4.48-3.36.31-.52.8-1.24,1.17-1.8.25-.36.52-.33.77,0,.68,1.08.52,2.45-.58,4.38a32.5,32.5,0,0,0-2.39,4.77c-.61,1.6-.52,2.74.15,2.81,1.2.1,2.92-2.12,4.54-5,1.9-3.3,2.79-5.55,3.74-7,.28-.42.52-.49.77-.2a3.76,3.76,0,0,1,0,3.62c-.68,1.47-2.18,3.85-2.88,5.55-.8,1.89-.68,3.23.43,3.17,1.26-.07,2.85-2.22,4-4.51.15-.29.4-.33.55,0a2.74,2.74,0,0,1-.28,2C113.4,118.5,111.53,120.13,109.71,120.13Zm-14-10.91a11.77,11.77,0,0,0-2.39,3.1c-1.29,2.45-1.72,5.42-.92,6.17s2.7-.42,4.23-3.4a18.1,18.1,0,0,0,1.07-2.64,4,4,0,0,1-2-3.22Zm1.5.07a2.63,2.63,0,0,0,.71,2.22,6.63,6.63,0,0,0,.21-2.32c-.13-1-.84-.81-.93.1Z"/><path d="M122.45,107.76c.37-.26.61-.33.83-.07.58.69,1.32,2.12.43,3.2a17.68,17.68,0,0,0-3.38,5.42c-.49,1.7-.12,3,.77,3,1.2.06,2.67-2,3.65-4.31.12-.26.31-.29.43,0a3,3,0,0,1-.15,2,4.66,4.66,0,0,1-4.11,3.2c-2.21-.1-3.1-2.25-2.33-4.7a20.33,20.33,0,0,1,3.68-6,6.39,6.39,0,0,1-3.59,1.24c-1.17,2.29-4.11,6.92-4.69,9.89-.06.29-.25.46-.52.16-.89-1-.89-2.48-.06-4.15.71-1.44,2.76-4.51,3.9-6.24-1.75-1.21.92-5.06,2.06-5.09s.71,1.86-.06,3.92A7.05,7.05,0,0,0,122.45,107.76Z"/><path d="M137.88,100.74c-.06-.26,0-.39.34-.39,2.55.13,5.8-.82,7.52-.82a2.49,2.49,0,0,1,2.52,1.67c.09.26,0,.49-.37.49a35.38,35.38,0,0,0-6.32.92c-1.07,1.86-2.52,4.51-4,7.44a14.37,14.37,0,0,1,2.06-.26,2.2,2.2,0,0,1,2.58,1.57c.09.29,0,.49-.34.49a24.31,24.31,0,0,0-5.65.92c-1.17,2.42-2.3,4.87-3.19,7.05-.12.33-.31.33-.52.13-.58-.52-.89-1.57-.25-3.59.92-2.87,4.14-9.27,6.84-13.94A2.38,2.38,0,0,1,137.88,100.74Z"/><path d="M153.87,107q.41-.64.74-.2a3.75,3.75,0,0,1,0,3.62c-.67,1.47-2.21,3.92-2.95,5.65s-.8,3.23.25,3.17c1.26-.07,2.95-2.29,4-4.54.15-.29.37-.33.49,0a3.1,3.1,0,0,1-.28,2c-.8,1.8-2.73,3.59-4.42,3.49a2.46,2.46,0,0,1-2.52-2.68c-1,1.34-2.36,2.55-3.84,2.55-2.85,0-3.44-4.15-.89-8.1s4.91-5.32,6.44-5.32c1.32,0,1.93,1.08,1.87,2.35A17.4,17.4,0,0,1,153.87,107Zm-2.46,1.34c-1-.1-3.22,2-4.91,4.93s-2,5.68-.83,5.71,2.85-2.06,4.42-4.93c1.91-3.61,2.21-5.64,1.32-5.74Z"/><path d="M165.62,106.75c1,0,1.6,1.76,1.2,3.2,1.47-1.54,3.53-3.07,4.54-3s1.35,2,.74,3.59-2.06,3.63-2.82,5.26c-.86,1.86-.43,3.36.68,3.33,1.26,0,2.64-2.19,3.84-4.47.15-.29.4-.29.55-.06a3.38,3.38,0,0,1-.28,2.06c-.86,1.86-2.82,3.49-4.6,3.49-2.67,0-3.65-2.25-2.52-4.93s3.87-6.37,3.41-6.53c-.25-.1-1.29.26-3.28,2.38a28.71,28.71,0,0,0-5.34,8.92c-.18.39-.43.49-.71.16-.52-.49-1-1.76-.06-4.11,1-2.71,4.33-7.22,3.71-7.45-.37-.16-1.87.72-3.84,3a29.81,29.81,0,0,0-4.51,8.2c-.12.29-.31.42-.58.16-.67-.62-.83-1.7-.31-3.36a55.26,55.26,0,0,1,4.82-9.73c.21-.36.46-.33.64,0a4.31,4.31,0,0,1,0,3.49C162.21,108.64,164.51,106.71,165.62,106.75Z"/><path d="M174.12,115.3a41.25,41.25,0,0,1,3.93-7.94c.28-.39.49-.49.74-.2a3.61,3.61,0,0,1,0,3.56c-.64,1.44-1.93,3.66-2.58,5.29-.74,1.89-.67,3.17.31,3.1,1.38-.07,3.07-2.22,4-4.47.15-.29.37-.26.49,0a2.46,2.46,0,0,1-.21,2,5.52,5.52,0,0,1-4.57,3.4C173.84,120.07,173.26,118,174.12,115.3Zm6.84-8.52c-.4.46-1.26.36-1.72-.49a2.13,2.13,0,0,1,.15-2.42c.49-.56,1.38-.16,1.78.72a2.07,2.07,0,0,1-.17,2.19Z"/><path d="M183.66,119.09c1.47.13,3.62-2.22,4.82-4.73.21-.42.55-.46.68,0a3.17,3.17,0,0,1-.31,2c-.43,1-2.67,3.69-5.12,3.63-2.12-.07-3.25-1.63-2.55-5.16a34.72,34.72,0,0,1,7.76-15.05c.46-.52.89-.59,1.32-.16a3.5,3.5,0,0,1,.71,3.59c-1,4-4.39,7.93-7.12,9.83C182.62,116.25,182.28,119,183.66,119.09Zm6.26-16.55c-.4-.26-2.67,3.36-4.79,7.54q-.41.78-.74,1.57c4.21-3.65,5.93-8.86,5.53-9.12Z"/><path d="M194.55,120.79c-1.72,4.38-3.9,9.63-6.44,10.68-.58.23-1.17.23-1.75-.69a4.31,4.31,0,0,1-.61-4c.92-2.94,3.53-4.9,6.57-6.17.31-.75.61-1.57,1-2.35a4.42,4.42,0,0,1-3.34,1.8c-2.21-.2-2.27-2.58-1.56-4.74a35.64,35.64,0,0,1,4.17-8.26c.25-.36.55-.33.77,0,.74,1,.55,2.42-.58,4.34a30.5,30.5,0,0,0-2.36,4.77c-.61,1.6-.55,2.74.15,2.81,1.2.1,2.73-2,4.3-4.83,1.32-2.42,2.64-5.36,3.71-7,.28-.42.49-.49.77-.23a3.8,3.8,0,0,1-.12,3.66c-.92,1.89-2.79,5.81-4.08,9a16.7,16.7,0,0,0,5.43-5c.15-.23.43-.26.49.07a3.07,3.07,0,0,1-.55,1.89C199.25,118.44,197.1,119.68,194.55,120.79ZM187,129.67c.4.62,2.92-2.94,4.82-7.74C187.8,124.38,186.42,128.85,187,129.67Z"/><path d="M210.35,112.49a1.6,1.6,0,0,1-.4-2.19,1.82,1.82,0,0,1,2-1c.55.23.86,1.27.34,2.29S210.94,112.79,210.35,112.49Z"/><path d="M236.31,112.79c-2.49,4.87-6.35,8.69-10.52,7.05-2.52-1-3.5-3.43-3.5-6.11,0-7,5.74-13,9.21-14.3a3.73,3.73,0,0,1,4.17.65C239.47,101.85,238.61,108.28,236.31,112.79Zm-1.26-11.92c-1.5-.59-5.4,1.63-8.29,6.4s-3,10.38-.92,11.33,5.65-1.7,8.22-6.73C236.86,106.42,236.74,101.52,235.05,100.87Z"/><path d="M256.56,120.07c-2.39-.07-3.31-2.32-2.55-4.93.64-2.19,2.55-4.64,3.84-6.21a6.68,6.68,0,0,1-3.68,1.24c-1.6,4.31-4.2,9.54-7.52,9.83-1.84.16-2.73-1.18-2.58-3-1.07,1.54-2.61,3.13-4.3,3-2.21-.16-2.24-2.58-1.56-4.7a32.74,32.74,0,0,1,4.23-8.26c.25-.33.49-.36.71,0,.74,1.08.58,2.42-.52,4.38a36.49,36.49,0,0,0-2.42,4.77c-.61,1.6-.52,2.74.15,2.81,1.2.1,2.92-2.16,4.54-5,1.93-3.36,2.79-5.55,3.77-7,.28-.39.49-.46.74-.2a3.67,3.67,0,0,1,0,3.59c-.64,1.47-2.21,3.92-2.88,5.58-.77,1.86-.61,3.13.34,3,2-.2,4.51-4.38,6.14-9-2.46-1,.43-5.39,1.69-5.49,1-.07.74,2,.06,4.11a8,8,0,0,0,3.38-1.53c.37-.33.68-.42.92-.1.55.72,1.32,2.22.4,3.33a20.3,20.3,0,0,0-3.47,5.65c-.58,1.8-.21,3.1.77,3.17,1.23.07,2.79-2.06,3.77-4.51.12-.29.34-.29.46,0a3.1,3.1,0,0,1-.15,2.12A5,5,0,0,1,256.56,120.07Z"/><path d="M280.83,112.92c.77,2.19-1.2,4.64-2.49,5.62a5.89,5.89,0,0,1-6.41.69c-1.38-.78-2.58-2.81-2.64-5.49-.12-6.92,5.34-12.83,8.78-14.24,1.66-.69,3.16-.82,4.14.1a6,6,0,0,1,1.63,2.38,4,4,0,0,1-.28,2.87c-.46,1-.89,2.29-1.23,3.23-.09.26-.31.46-.67.2-.71-.49-1.2-1.5-.74-3.13s1.6-3.59.89-4.38c-.86-1-5.52,1.67-8.29,6.53s-2.39,9.6-.89,10.91c2,1.7,5.22-.49,7.55-5.36C280.34,112.49,280.68,112.49,280.83,112.92Z"/><path d="M312.22,116.7c-.86,1.8-2.82,3.49-4.57,3.46-2.64,0-3.56-2.25-2.49-4.9s3.84-6.33,3.38-6.53c-.25-.1-1.32.33-3.28,2.42A28.76,28.76,0,0,0,300,120c-.15.39-.43.49-.71.2-.49-.52-.86-1.76,0-4.08,1-2.71,4.27-7.18,3.68-7.45-.31-.13-1.84.75-3.81,3a29.65,29.65,0,0,0-4.48,8.13c-.12.26-.28.36-.58.1-.64-.55-.8-1.67-.31-3.3a33.94,33.94,0,0,1,2-4.57,4.06,4.06,0,0,1-2.85.82c-.61,2.81-2.55,6.2-4.82,7a3.2,3.2,0,0,1-3.9-1.4c-1.32-1.89-.86-4.77.52-7.35,1.17-2.19,3-4.11,4.88-4.25a2,2,0,0,1,2.06,1.11c.74,1,1.66,1.18,1.47,3.59a1.52,1.52,0,0,1-.06.52c2,0,4-2.45,5.52-5.09a.35.35,0,0,1,.67,0,4.22,4.22,0,0,1-.06,3.4c1.38-1.63,3.62-3.56,4.73-3.53s1.56,1.76,1.2,3.2c1.44-1.47,3.5-3,4.48-3s1.35,2,.74,3.53-2.06,3.62-2.79,5.22c-.86,1.86-.46,3.4.68,3.33s2.61-2.19,3.77-4.51c.15-.29.37-.23.52,0A3,3,0,0,1,312.22,116.7Zm-23.38-7.44a12.15,12.15,0,0,0-2.36,3.1c-1.35,2.45-1.75,5.42-1,6.17s2.7-.42,4.2-3.36a13.44,13.44,0,0,0,1.1-2.81A4,4,0,0,1,288.84,109.26Zm2.42,0c-.15-1-.8-.88-.92.1a2.63,2.63,0,0,0,.74,2.19A7.05,7.05,0,0,0,291.26,109.26Z"/><path d="M321.79,106.75c1,0,1.6,1.76,1.2,3.2,1.47-1.54,3.53-3.07,4.54-3s1.35,2,.74,3.59-2.06,3.63-2.82,5.26c-.86,1.86-.43,3.36.68,3.33,1.26,0,2.64-2.19,3.83-4.47.15-.29.4-.29.55-.06a3.37,3.37,0,0,1-.28,2.06c-.86,1.86-2.82,3.49-4.6,3.49-2.67,0-3.65-2.25-2.52-4.93s3.87-6.37,3.41-6.53c-.25-.1-1.29.26-3.28,2.38A28.71,28.71,0,0,0,317.9,120c-.18.39-.43.49-.71.16-.52-.49-1-1.76-.06-4.11,1-2.71,4.33-7.22,3.71-7.45-.37-.16-1.87.72-3.84,3a29.81,29.81,0,0,0-4.51,8.2c-.12.29-.31.42-.58.16-.67-.62-.83-1.7-.31-3.36a55.26,55.26,0,0,1,4.82-9.73c.21-.36.46-.33.64,0a4.31,4.31,0,0,1,0,3.49C318.39,108.64,320.69,106.71,321.79,106.75Z"/><path d="M331.82,120c-2.18-.16-2.24-2.58-1.57-4.74a35.84,35.84,0,0,1,4.24-8.33.45.45,0,0,1,.8,0c.67,1.08.52,2.55-.58,4.41a34.21,34.21,0,0,0-2.39,4.8c-.64,1.6-.55,2.78.15,2.84,1.2.1,2.88-2.19,4.54-5,1.93-3.33,2.82-5.58,3.81-7,.31-.46.52-.52.77-.2a3.82,3.82,0,0,1,0,3.66c-.68,1.47-2.21,3.92-2.92,5.58-.8,1.86-.68,3.23.43,3.17,1.29-.07,2.85-2.22,4-4.51.15-.29.43-.33.55,0a3,3,0,0,1-.28,2.06c-.89,1.83-2.79,3.49-4.6,3.49-2,0-2.79-1.34-2.55-3.23C335.17,118.47,333.54,120.13,331.82,120Z"/><path d="M352.72,106.78c1,.16,2,1.76,1.2,3.46-.64,1.44-2.15,3.85-2.85,5.55-.8,1.89-.61,3.43.49,3.36,1.26-.07,2.76-2.22,3.93-4.51.15-.29.37-.29.52,0a2.53,2.53,0,0,1-.28,2.06c-.83,1.83-2.76,3.49-4.54,3.49-2.61,0-3.22-2-2.33-4.87,1-3.2,3.71-6.66,3.16-6.92-.31-.13-2.09.78-4,3.07-1.81,2.09-3.16,5.22-4.48,8.29-.12.29-.31.42-.58.13-.61-.65-.8-1.73-.31-3.36a52.91,52.91,0,0,1,4.91-9.63c.21-.36.46-.33.64,0a4.1,4.1,0,0,1,.09,3.1C349.62,108.41,351.71,106.62,352.72,106.78Z"/><path d="M355.88,115.3a41.22,41.22,0,0,1,3.93-7.94c.28-.39.49-.49.74-.2a3.61,3.61,0,0,1,0,3.56c-.64,1.44-1.93,3.66-2.58,5.29-.74,1.89-.67,3.17.31,3.1,1.38-.07,3.07-2.22,4-4.47.15-.29.37-.26.49,0a2.46,2.46,0,0,1-.21,2A5.52,5.52,0,0,1,358,120C355.6,120.07,355,118,355.88,115.3Zm6.84-8.52c-.4.46-1.26.36-1.72-.49a2.13,2.13,0,0,1,.15-2.42c.49-.56,1.38-.16,1.78.72A2.08,2.08,0,0,1,362.72,106.78Z"/><path d="M364.53,106c-.31-.46-.12-.69.34-.65a16.53,16.53,0,0,0,2.55-.13,42.44,42.44,0,0,1,2.33-4c.28-.42.58-.39.74,0a4.71,4.71,0,0,1-.4,3.69,1.9,1.9,0,0,1,1.9,1c.21.39.09.62-.37.62a8.61,8.61,0,0,0-2.39.13c-1.2,2.19-3,5.36-4.11,8.1-1,2.38-.67,4.41.61,4.47s3.13-2.25,4.26-4.7c.18-.39.52-.46.64,0a2.89,2.89,0,0,1-.31,1.86c-.4.95-2.42,3.82-4.88,3.72-2-.07-3.65-2.48-2.18-6.24.64-1.63,1.93-4.38,3.25-7A2.46,2.46,0,0,1,364.53,106Z"/><path d="M375.91,120.79c-1.72,4.38-3.9,9.63-6.44,10.68-.58.23-1.17.23-1.75-.69a4.31,4.31,0,0,1-.61-4c.92-2.94,3.53-4.9,6.57-6.17.31-.75.61-1.57,1-2.35a4.42,4.42,0,0,1-3.34,1.8c-2.21-.2-2.27-2.58-1.56-4.74a35.64,35.64,0,0,1,4.17-8.26c.25-.36.55-.33.77,0,.74,1,.55,2.42-.58,4.34a30.42,30.42,0,0,0-2.36,4.77c-.61,1.6-.55,2.74.15,2.81,1.2.1,2.73-2,4.3-4.83,1.32-2.42,2.64-5.36,3.71-7,.28-.42.49-.49.77-.23a3.8,3.8,0,0,1-.12,3.66c-.92,1.89-2.79,5.81-4.08,9a16.71,16.71,0,0,0,5.43-5c.15-.23.43-.26.49.07a3.07,3.07,0,0,1-.55,1.89C380.61,118.44,378.46,119.68,375.91,120.79Zm-7.58,8.88c.4.62,2.92-2.94,4.82-7.74-4,2.45-5.37,6.92-4.81,7.74Z"/><path d="M391.72,112.49a1.6,1.6,0,0,1-.4-2.19,1.82,1.82,0,0,1,2-1c.55.23.86,1.27.34,2.29S392.3,112.79,391.72,112.49Z"/><path d="M405.92,115c-.92,1.67-1.72,3.27-2.33,4.7a.3.3,0,0,1-.55.07c-.37-.52-.49-1.5.15-3.33a18,18,0,0,1,.83-1.86,2.26,2.26,0,0,1-1-1.11c-.15-.42-.09-.56.37-.49s.89.13,1.38.16c2.39-4.44,6.66-10.91,9.91-13.75.49-.42.8-.42,1.11,0a4.48,4.48,0,0,1,.71,1.34,3.35,3.35,0,0,1,0,2.38,71.72,71.72,0,0,0-2.24,9.5,2,2,0,0,1,1.38,1.67c.06.29-.06.39-.34.29a6.84,6.84,0,0,0-1.32-.2c-.21,1.7-.4,3.49-.46,5.22,0,.33-.18.42-.46.29-.61-.29-1.1-1.11-1.14-3a19.59,19.59,0,0,1,.12-2.48C409.85,114.62,407.36,115,405.92,115Zm6.35-2.51a53.24,53.24,0,0,1,2.27-10.06A87.72,87.72,0,0,0,407.09,113c1.91-.15,3.74-.51,5.18-.54Z"/><path d="M419.51,119.09c1.47.13,3.62-2.22,4.82-4.73.21-.42.55-.46.67,0a3.17,3.17,0,0,1-.31,2c-.43,1-2.67,3.69-5.12,3.63-2.12-.07-3.25-1.63-2.55-5.16a34.71,34.71,0,0,1,7.76-15.05c.46-.52.89-.59,1.32-.16a3.5,3.5,0,0,1,.71,3.59c-1,4-4.39,7.93-7.12,9.83C418.47,116.25,418.13,119,419.51,119.09Zm6.26-16.55c-.4-.26-2.67,3.36-4.79,7.54q-.41.78-.74,1.57c4.21-3.65,5.93-8.86,5.53-9.12Z"/><path d="M427.28,119.09c1.47.13,3.62-2.22,4.82-4.73.21-.42.55-.46.67,0a3.17,3.17,0,0,1-.31,2c-.43,1-2.67,3.69-5.12,3.63-2.12-.07-3.25-1.63-2.55-5.16a34.71,34.71,0,0,1,7.76-15.05c.46-.52.89-.59,1.32-.16a3.5,3.5,0,0,1,.71,3.59c-1,4-4.39,7.93-7.12,9.83C426.23,116.25,425.9,119,427.28,119.09Zm6.26-16.55c-.4-.26-2.67,3.36-4.79,7.54q-.41.78-.74,1.57c4.21-3.65,5.92-8.86,5.53-9.12Z"/><path d="M441.76,115.89c1.23,1,3.31,2.74,5.31,2.74A2.81,2.81,0,0,0,449,118a1.18,1.18,0,0,0,0-1.67l0,0c-1.63-1.47-6.47-3.49-6.47-6.86,0-4.47,4.76-8.29,7.49-9.54,1.47-.65,3-.91,4,.07a6,6,0,0,1,1.53,2.74,4.36,4.36,0,0,1-.89,3.26,38.17,38.17,0,0,0-2.12,3.63c-.15.29-.34.46-.67.1a2.75,2.75,0,0,1-.31-3.17c.64-1.57,3-4.28,2.21-5.09-1-1.14-8.59,3.85-8.75,7.93-.09,2.12,3.83,3.85,5.55,5.16,1.17.88,1,2.38-.34,4-1.84,2.25-7.18,2.87-11.51-2.68-.34-.42-.21-.65.06-.75A3.37,3.37,0,0,1,441.76,115.89Z"/><path d="M463.6,106.75c1,0,1.6,1.76,1.2,3.2,1.47-1.54,3.53-3.07,4.54-3s1.35,2,.74,3.59-2.06,3.63-2.82,5.26c-.86,1.86-.43,3.36.68,3.33,1.26,0,2.64-2.19,3.83-4.47.15-.29.4-.29.55-.06a3.37,3.37,0,0,1-.28,2.06c-.86,1.86-2.82,3.49-4.6,3.49-2.67,0-3.65-2.25-2.52-4.93s3.87-6.37,3.41-6.53c-.25-.1-1.29.26-3.28,2.38a28.72,28.72,0,0,0-5.34,8.92c-.18.39-.43.49-.71.16-.52-.49-1-1.76-.06-4.11,1-2.71,4.33-7.22,3.71-7.45-.37-.16-1.87.72-3.84,3a29.8,29.8,0,0,0-4.51,8.2c-.12.29-.31.42-.58.16-.67-.62-.83-1.7-.31-3.36a55.29,55.29,0,0,1,4.82-9.73c.21-.36.46-.33.64,0a4.32,4.32,0,0,1,0,3.49C460.2,108.64,462.5,106.71,463.6,106.75Z"/><path d="M472.1,115.3a41.22,41.22,0,0,1,3.93-7.94c.28-.39.49-.49.74-.2a3.61,3.61,0,0,1,0,3.56c-.64,1.44-1.93,3.66-2.58,5.29-.74,1.89-.67,3.17.31,3.1,1.38-.07,3.07-2.22,4-4.47.15-.29.37-.26.49,0a2.46,2.46,0,0,1-.21,2,5.52,5.52,0,0,1-4.57,3.4C471.83,120.07,471.24,118,472.1,115.3Zm6.84-8.52c-.4.46-1.26.36-1.72-.49a2.13,2.13,0,0,1,.15-2.42c.49-.56,1.38-.16,1.78.72a2.08,2.08,0,0,1-.2,2.19Z"/><path d="M481.65,119.09c1.47.13,3.62-2.22,4.82-4.73.21-.42.55-.46.67,0a3.17,3.17,0,0,1-.31,2c-.43,1-2.67,3.69-5.12,3.63-2.12-.07-3.25-1.63-2.55-5.16a34.71,34.71,0,0,1,7.76-15.05c.46-.52.89-.59,1.32-.16a3.5,3.5,0,0,1,.71,3.59c-1,4-4.39,7.93-7.12,9.83C480.6,116.25,480.26,119,481.65,119.09Zm6.26-16.55c-.4-.26-2.67,3.36-4.79,7.54q-.41.78-.74,1.57c4.21-3.65,5.92-8.86,5.53-9.12Z"/><path d="M490.79,119.15c2.55.13,4.79-2.48,6.11-4.64.15-.26.4-.26.52,0a2.78,2.78,0,0,1-.52,2,7.67,7.67,0,0,1-6,3.53c-3.9.07-5.25-4-3.25-8.23s5.13-5.91,6.66-5a5.85,5.85,0,0,1,1.81,1.7c.55.78.31,2.78-1,4.44-1.5,2-3.56,2.81-5.71.95C488.43,117,489.16,119.06,490.79,119.15Zm2.55-7.51c1-1.37,1.66-3.07,1.23-3.43-.64-.56-3.19,1.4-4.63,4.51-.09.2-.18.39-.25.56C491.19,114.29,492.45,112.88,493.34,111.64Z"/><path d="M501.68,108.61a3.63,3.63,0,0,1,1.1-2.51c.67-.65,1.38-.78,1.66-.49s.15.69-.25,1.44c-.12.2-.21.39-.34.62-.21,3,.37,5.55.28,7.8a4.17,4.17,0,0,1-1.38,3.43,8.15,8.15,0,0,0,4.11-4.54c.15-.36.46-.26.58,0a3.11,3.11,0,0,1-.43,2.16,6.43,6.43,0,0,1-5.43,3.59,4.46,4.46,0,0,1-4.54-2.45c-.74-1.47-.64-3.62.4-4.54.37-.33.61-.2.64.33a3.42,3.42,0,0,0,.06.78A64.91,64.91,0,0,0,501.68,108.61ZM498.43,116c.46,1.89,1.35,3.23,2.36,2.91,1.41-.46,1-5.58.83-8.2A58,58,0,0,1,498.43,116Z"/><path class="cls-1" d="M10.23,96.09,8.36,98.37l.15.06Z"/><path class="cls-1" d="M10.68,92.65l-.61.72a.57.57,0,0,1,.21-.06Z"/><path class="cls-1" d="M8.52,98.44c.59.18,1.8-.4,1.31,1.12-1,1.25-3,3.78-3.91,5.06-.68,1.45.5.37.76.55A10.92,10.92,0,0,0,5,107.77c-.14.58.12.49.61,0a31.26,31.26,0,0,0,2.14-2.53c1.25-3.22,4.73-8.38,6.3-11,.79-1.29,1.05-2,.28-1.48A42.66,42.66,0,0,0,8.52,98.44Z"/><path class="cls-1" d="M16.13,87.69c-2,2.14-3.88,4.31-5.74,6.52-.31.92-.82,2.08,0,1.64C13.08,92.26,14.7,90,16.13,87.69Z"/><path class="cls-1" d="M554.44,79.32c0-.09.18-.11,1.61.35l-1.61-.35c0,.08,0,.23-.72.13,1.42.28,2.91.52,4.41.86l4.62,1.09,4.76,1.15,4.72,1.4,2.47.24a214,214,0,0,0-44.81-9.07l6.52.93,5.92,1c1.93.33,3.87.58,5.85,1Z"/><path class="cls-1" d="M576.21,83.65l1.59.48C576.42,83.56,576.25,83.56,576.21,83.65Z"/><path class="cls-1" d="M287.3,85.36c-10.07,1.26-18.81,2.79-28,3.81,9.83-.75,19.37-2,28.41-3.22s17.44-2.43,24.6-3.58C304,83.38,295.68,84.4,287.3,85.36Z"/><path class="cls-1" d="M215.33,67a37.4,37.4,0,0,0,5.52,9.54,36,36,0,0,0,7.7,7.15,40.12,40.12,0,0,0,17.39,6.22,42.36,42.36,0,0,1-16.78-6.31A37.59,37.59,0,0,1,217,69.94C216.35,69,215.86,67.94,215.33,67Z"/><path class="cls-1" d="M225.8,80.22a20.18,20.18,0,0,0,2,1.67,21.89,21.89,0,0,0,2.09,1.49L232,84.69c.73.38,1.47.73,2.19,1.08.36.17.73.36,1.09.51l1.11.42,2.19.8c1.47.38,2.92.84,4.35,1.09a56.52,56.52,0,0,0,16.27.58A58.63,58.63,0,0,1,241.7,88,38.73,38.73,0,0,1,225.8,80.22Z"/><path class="cls-1" d="M454.11,59.93c7.61-.44,12.23-.6,14.86-.6,1.17-.19,2.71-.42,4.81-.7h-1.36c-4,0-7.91.13-11.9.23s-8,.24-12,.4l-4.78.36c-1.52.15-3,.3-4.27.46C444.33,59.94,449.25,60,454.11,59.93Z"/><path class="cls-1" d="M469,59.33c-5,.87-2.41.83.11.63S474.1,59.36,469,59.33Z"/><path class="cls-1" d="M420.23,69.9l-1.15.06-3.33.28Z"/><path class="cls-1" d="M327,73.3l19.61-2.46c-13.35,1.55-26.78,3.27-37.86,5,1.66-.19,3.35-.24,5-.43C317,74.75,322,73.85,327,73.3Z"/><path class="cls-1" d="M472.33,67.79c-18.2,0-36,.79-53.25,2.17a918,918,0,0,0-98.69,10.28c-6.61,1.08-14.47,2.22-23,3.41s-17.63,2.42-26.86,3.48c-4.65.5-9.19,1.06-14.06,1.22A56.39,56.39,0,0,1,242,87.13a37.83,37.83,0,0,1-22.62-14.7,33,33,0,0,0,6.41,7.79A40.82,40.82,0,0,1,217,69.94a49.61,49.61,0,0,1-3.68-9.06,64.42,64.42,0,0,1-1.94-9.17,96.74,96.74,0,0,1-.66-17.86l.2-4.13v-.94h0l.33-.06.77-.16.57-.08a6.4,6.4,0,0,0,1.13-.32L214,28l.19,0,.36-.13c1.11-.57,1.08-.8,1-.54a1.18,1.18,0,0,0-.14.37s-.08.23-.11.33a3.1,3.1,0,0,0-.09.39,12.27,12.27,0,0,0-.11,2.06c.05.32,0,.89.09,1.4s0,.26,0,.27h0a2.06,2.06,0,0,1-.26.07,9.44,9.44,0,0,0-1,.38A24.25,24.25,0,0,0,211.09,34q-1.5.85-3,1.89c-2.06,1.36-4.13,2.89-6.19,4.48-4.13,3.19-8.2,6.68-12.23,10.26q-3,2.69-6,5.47l-6.08,5.69c-2.13,2-4.3,3.9-6.61,5.81L169.16,69l-2.51,1.88-.33.24-.39.26-.79.52-1.58,1c-1.07.62-2.15,1.24-3.24,1.77a21.63,21.63,0,0,1-6.5,2l-1.59.09c-.52,0-1-.07-1.57-.11a9.62,9.62,0,0,1-1.57-.29,13.15,13.15,0,0,1-1.54-.52,11.82,11.82,0,0,1-2.83-1.66,14.15,14.15,0,0,1-2.18-2.31,17.11,17.11,0,0,1-2.76-6,19.6,19.6,0,0,1-.44-2.06l-.2-1L139,61.75c-.07-.7-.17-1.39-.21-2.08l-.09-2.09v-6c0-1.57.08-3.12.16-4.71l.16-2.41.18-2.33a96.16,96.16,0,0,0,0-18.31.38.38,0,0,0-.08.21,27.66,27.66,0,0,0-1.78-7.48,6.74,6.74,0,0,0-1.11-1.85.68.68,0,0,0-.44-.26h-.54a2.21,2.21,0,0,0-.45,0,24.62,24.62,0,0,0-3.41.93c-3.2.94-6.21,2-9.24,3.13A188.12,188.12,0,0,0,86.77,37.07a336.51,336.51,0,0,0-31.4,22.86c-3.73,3.14-4.15,2.65-6.72,4.67-5.18,4-9.64,7.58-14.12,11.47s-9,8.08-14.07,13.35l-.35-.32c-1.47,1.7-2.85,3.18-4,4.4,1.64-3.21,5.46-8.22,7.19-10.73.85-1.27,1.16-1.93.36-1.47a48.4,48.4,0,0,0-6.21,5.34h0l1.89-2.25.22-.23h0a98.24,98.24,0,0,0,6.18-7.9q-3.09,3.08-6.11,6.25c.22-.55.31-1,0-.89L20,81l1.66-1.72a4.58,4.58,0,0,0,.4-.94c4.84-6,13.49-14.46,11.35-13.34-1.55,1-5.46,5-9.84,9.66-.31.23-.66.51-1,.8,5.83-6-.79-.79,2.69-4.43,4.81-4.7,9.64-9.38,14.7-13.81a362.36,362.36,0,0,1,30.56-24c5.19-3.64,10.46-7.1,15.9-10.44s11.18-6.49,17.26-9.51l3.22-1.55A149.91,149.91,0,0,1,125,4.62l4.57-1.35a20.42,20.42,0,0,1,5.35-.91,13.34,13.34,0,0,1,5.84,1.13,13,13,0,0,1,4.72,3.71,14.24,14.24,0,0,0-2.48-2,16.75,16.75,0,0,1,5.12,7.31,37.5,37.5,0,0,1,2,8A97,97,0,0,1,151,36.27c0,6.39-.82,12.87-.76,18.63v1.74a10.57,10.57,0,0,0,.12,1.59,14.15,14.15,0,0,0,.6,3.08,3.72,3.72,0,0,0,1.85,2.39,4.24,4.24,0,0,0,3.08-.27,15.83,15.83,0,0,0,2.73-1.53,29.66,29.66,0,0,0,2.62-2l.36-.29.45-.37.89-.74c.6-.49,1.18-1,1.78-1.53,1.18-1,2.36-2.1,3.52-3.19L175.35,47q3.64-3.41,7.44-6.78a199.85,199.85,0,0,1,16.63-13.37,54.43,54.43,0,0,1,9.74-5.66c.47-.2.95-.39,1.48-.56l.78-.26.86-.22A10.77,10.77,0,0,1,216.5,20a7.89,7.89,0,0,1,1.34.32,11.13,11.13,0,0,1,1.4.64,12,12,0,0,1,1.3,1,10,10,0,0,1,1,1.19,7,7,0,0,1,.68,1.22c.09.2.19.42.27.62l.16.55c.1.36.21.76.28,1.1l.13,1a13.86,13.86,0,0,1,.07,1.82v1.44L223,33.47c-.08,1.69-.13,3.36-.14,5a80.75,80.75,0,0,0,.5,9.85c.74,6.45,2.49,12.75,5.81,17.8a37.69,37.69,0,0,1-5.5-14.43,76.06,76.06,0,0,1-1-16.74l.24-4,.06-1v-1.3a10.09,10.09,0,0,0-.1-1.45,1.85,1.85,0,0,0-.11-.76l-.22-.85A8,8,0,0,0,220.48,22a7.25,7.25,0,0,0-2-1.32,6.77,6.77,0,0,0-1.06-.39c-.33-.08-.66-.15-1-.2a4.87,4.87,0,0,0-.92-.09h-.87a10.57,10.57,0,0,0-1.51.17,17.17,17.17,0,0,0-2.52.67,17.06,17.06,0,0,1,2.62-.65,10.24,10.24,0,0,1,3.4,0c.34.06.67.13,1,.22a7.32,7.32,0,0,1,1.08.45,4.66,4.66,0,0,1,1,.62,8.11,8.11,0,0,1,.93.79,7.73,7.73,0,0,1,1.3,1.73q.22.46.42.93a5.15,5.15,0,0,1,.24.84c.07.28.15.57.2.83l.09.74.08.74v.67a21.51,21.51,0,0,1-.07,2.28l-.2,3.88A84.34,84.34,0,0,0,223,49.7a48.47,48.47,0,0,0,1.31,7,34.37,34.37,0,0,0,2.33,6.3c.43,1,1,1.91,1.52,2.85a28.67,28.67,0,0,0,1.8,2.53,22.58,22.58,0,0,0,4.21,4.11,23.48,23.48,0,0,0,9.89,4.16,11,11,0,0,0,2.78,1c1.24.31,2.56.4,3.85.59s2.64.17,3.94.26h4l4.13-.26c5.51-.45,10.86-1.09,15.78-1.95,0-.15,5-.69,3.26-.83,9.91-1.26,21.54-2.66,31.48-4.14,4.31-.6,8.59-1.41,12.87-2.26C344,66.55,361.79,64.3,380,62.41s36.89-3.46,56.46-4.35c9.71-.46,21-.46,30.84-.36-14.54.3-29.46,1-44.56,2a369.06,369.06,0,0,0-40.1,3.15l-8,1.07c16.15-1.72,32.22-3.15,48.08-4.22,4.33-.12,8.71-.29,13.11-.33s8.79-.16,13.15-.17h-.52c-3.42.11-6.85.28-10.29.47s-6.89.34-10.35.58c-13,.34-25.54,1.1-36.2,2.43l-3.91.52-8,1c10-1,19.89-1.92,29.75-2.72l9.18-.68,9.15-.59c3.83-.14,7.71-.17,11.58-.24l-1.21.15a42.74,42.74,0,0,0-7,1.3c-2.13.62-3.2,1.24-.68,1.38,13-.46,28.53-.78,40.9-.66l8.58.1,6.81.22,4.49.16,1.2.08h.41c.21.09-.31.14-1.37.15s-2.66,0-4.62,0l-6.78-.06h-7.85c-10.71,0-21.38.38-20.54.46,2.49,0,5,.08,7.46.17-2.36.1-4.67.23-6.79.41-2.52.1-5.46.13-8.19.17s-5.25.18-6.93.38c-11.72,1.23-25.14,1.5-38.48,3-4.17.5-8.75,1.13-13.53,1.77s-9.75,1.38-14.72,2.16c0,.31-5,.61-3.3.77-9.4.84-20.27,2-24.2,3.31l-.68.1c-.66.07-1.6.23-2.59.41-15.63,1.53-26.41,3.7-40.48,6-4.86.65-9.8,1.29-14.91,1.86,3.34-.37,8.34-.8,11.65-1.34l3.25-.52c12.59-1.69,24.54-3.53,36.49-5.18,1-.2,2.53-.52,4-.78l2.61-.25c.2-.09.42-.17.66-.25,11.43-1.67,24.42-3.06,34.19-4.34C395.68,69,415.47,68,434.4,67.59c-4.71.24-9.38.61-14,.91s-9.22.73-13.76,1.16c11.38-.9,22.13-1.68,32.59-2.17l4.81-.11,10-.09-9.31-.08,9.31-.36c3.08-.13,6.15-.17,9.19-.26a485.08,485.08,0,0,1,51,1.89A302.37,302.37,0,0,1,565,77.58h-2.36A238.93,238.93,0,0,0,517,70.38c4.69.57,8.68.91,12.6,1.47l5.94.78c2,.26,4.11.67,6.36,1.05,0,.09,0,.23-.72.15,5.78.8,12.5,2.07,19,3.59-2.14-.18-4.57-.24-7-.37-1.67-.2-3.72-.58-6-1L540,74.92c-1.34-.22-2.66-.47-4-.66l-4-.55c-2.65-.35-5.27-.78-7.9-1.07C518.81,72,513.6,71.41,508.38,71c-10.43-.94-20.87-1.4-31.54-1.57-19-.63-38-.4-56.61.44C438.71,68.65,455.74,68,472.33,67.79ZM43.21,62.53,47,59l-.66.43A30.38,30.38,0,0,0,43.21,62.53ZM73.69,38.8C64.2,45,52.59,54.47,42,64.27v.18C51.09,56.49,62.41,46.8,73.69,38.8Zm40.43-19.1-.26.06.05.06ZM216.45,51a68.56,68.56,0,0,1-1.08-11c-.06-1.91,0-3.86,0-5.82l.11-2.94c0-1,.08-2,.05-2.63a3.15,3.15,0,0,0-.28-1.23c-.12.12.3-.22.26-.22h0l-.05.09a1,1,0,0,0-.11.24h-.16a6,6,0,0,0-1.8.34c-.38.14-.76.25-1.17.44s-.81.34-1.22.55a63.46,63.46,0,0,0-9.89,6.44c-3.93,2.91-7.37,6.49-12.36,10.81-3.07,2.77-5.44,5.08-7.65,7.26l-3.24,3.24c-1.09,1.08-2.23,2.23-3.48,3.41,1.34-1.06,2.68-2.19,4-3.24l-6,5.55c-.93.86-1.85,1.69-2.77,2.51-.45.41-.92.81-1.38,1.21l-.69.6-.37.31-.46.36-1.87,1.47-2.2,1.55c-.75.48-1.53.92-2.31,1.39a20.56,20.56,0,0,1-2.42,1.15,17.28,17.28,0,0,1-5.11,1.21,9.14,9.14,0,0,1-5.4-1.37c0,.08-.58-.14-1.31-.6a8.11,8.11,0,0,1-2.1-2.25,19.12,19.12,0,0,1-2.71-8.6c-.06-.82-.17-1.61-.18-2.44l-.1-2.4V52.62c.19-4.18.63-8.13.71-11.26.23-4,.34-8,.19-11.7a46.08,46.08,0,0,0-1.28-9.79,14.15,14.15,0,0,0-1-2.68,17.11,17.11,0,0,0-1.6-2.73,5.51,5.51,0,0,0-.82-1,3.38,3.38,0,0,0-.66-.46,2.53,2.53,0,0,0-.76-.21,1.3,1.3,0,0,0-.44,0h-.66a.66.66,0,0,1,.24.11,4.06,4.06,0,0,1,.82,0,1.29,1.29,0,0,1,.3.06.93.93,0,0,1,.29.1,2.49,2.49,0,0,1,.54.29c.09.05.15.14.25.19s.21.22.33.33a9.46,9.46,0,0,1,1.14,1.74,18.92,18.92,0,0,1,1,2.63,37.46,37.46,0,0,1,1.35,6.7,91.34,91.34,0,0,1,.35,14.79q-.12,2.25-.3,4.5c-.12,1.56-.24,3.18-.33,4.78s-.15,3.22-.18,4.89v3.28a30.13,30.13,0,0,0,.23,3.7,32.52,32.52,0,0,0,.55,3.52l.46,1.63a15.84,15.84,0,0,0,.57,1.54,12.57,12.57,0,0,0,3.6,5,9.56,9.56,0,0,0,2.81,1.5,10.41,10.41,0,0,0,3.07.45,16.65,16.65,0,0,0,6.14-1.33c4-1.67,8.43-5.15,10.61-7,2.39-2,4.63-4.1,6.82-6.19l6.31-6.17q3.12-3,6.29-6c3.61-3.38,7.19-6.79,11-9.9a85,85,0,0,1,9-6.7,32.37,32.37,0,0,1,4.65-2.48c.37-.16.71-.26,1.06-.39a7.62,7.62,0,0,1,.87-.21l.52-.07h0v-.14a.48.48,0,0,1,.1-.28,1.24,1.24,0,0,1,.21-.52h0a1.15,1.15,0,0,1-.42.32l-.21.14-.17.1h0a.26.26,0,0,0,.06.17v.3l.07.37v1c0,1.75-.1,3.58-.11,5.3a63.58,63.58,0,0,0,.54,9.19A43.49,43.49,0,0,0,216.45,51Zm11.82,15.15A36,36,0,0,1,223.57,55a61.87,61.87,0,0,1-1.67-13c-.08-2.2-.06-4.41,0-6.62l.16-3.33c.05-1.15.15-2.16.12-3.72,0-.36-.07-.78-.11-1.16a6.89,6.89,0,0,0-.26-1.25l-.18-.64c-.09-.23-.2-.47-.31-.7s-.23-.46-.35-.69a4.62,4.62,0,0,0-.52-.69,5.54,5.54,0,0,0-1.27-1.2,6.1,6.1,0,0,0-1.53-.8,7.77,7.77,0,0,0-1.5-.36,9.73,9.73,0,0,0-1.34-.07,14.31,14.31,0,0,0-4.18.84c-.61.2-1.15.44-1.72.66l-1.59.73a73.52,73.52,0,0,0-11.86,7.92c-4.31,3.42-8.74,7.36-12.54,11s-7,7-8.87,9.23-2.42,3.29-.88,2.5c2.45-3.44,8.7-10,17.09-17.19A117.71,117.71,0,0,1,204.6,25.75a42.42,42.42,0,0,1,4.29-2.31A17.71,17.71,0,0,1,214,21.9a7.13,7.13,0,0,1,3.39.33,8.19,8.19,0,0,1,.92.43,10.34,10.34,0,0,1,.84.64,5.15,5.15,0,0,1,.67.77c.1.13.21.27.3.41l.21.41a8.53,8.53,0,0,1,.37.83l.22.79a9,9,0,0,1,.23,1.5,20.49,20.49,0,0,1,0,2.59A105.73,105.73,0,0,0,221,47.31,49.21,49.21,0,0,0,223.74,60a22.66,22.66,0,0,0,3.52,6.48c.95,1,1.31.92,1-.37Zm129.32-.25c-7,.92-13.73,1.84-21.67,2.71q10.82-1.47,21.67-2.75ZM287.36,80.12c21.46-3.59,44.7-6.59,66.32-9.36,16.64-2.14,35.08-2.88,50.08-4.88v-.47l-1.66.26-15.58.6.86-.1-1.49.13c-3.29.18-6.7.44-10.62.88l-5.45.7c-20.87,2.12-42.33,4.8-61,8-11.58,1.83-21.44,3.82-33,5.52C279,81.05,284.06,80.66,287.36,80.12Z"/><path class="cls-1" d="M441.45,67.39c7.23-.32,14.52-.58,21.87-.65l4.25-.12h4.24l8.47-.09c26.93.13,58.49,3.51,86.69,10.91,1-.23,1.18-.65.29-1.39a278.59,278.59,0,0,0-46.69-8.88c-15.72-1.75-31.48-2.59-47.22-3.12h-.74c-1.69.08-3.5.12-5.42.17l-6,.16c-4.21.06-8.72.17-13.34.29-9.24.22-18.88.68-27.24,1.41-16.71,1.68-33.39,3.19-50,5.45C394.66,69.39,417.61,67.61,441.45,67.39Z"/><path class="cls-1" d="M245.94,89.9l2.8.33,1.4.15,1.39.06,2.77.11c.92,0,1.82,0,2.73-.06,1.87,0,3.55-.17,5.26-.29s3.4-.3,5.09-.45c9.37-1,18-2.22,26.46-3.43l24.92-3.7c-12.2,1.49-24.47,3-36.92,4.43-6.24.76-12,1.59-17.69,2.31l-4.31.49c-1.42.17-3,.22-4.51.33s-3.09,0-4.64,0S247.54,90,245.94,89.9Z"/><path class="cls-1" d="M332.21,80.62l-13.44,2c18.08-2.23,36-4.33,53.92-6.11,29.43-3.21,59-5.42,88.55-6.06,3.36-.06,6.7-.12,10-.07a774.82,774.82,0,0,0-81.46,2.52c-26.41,2.13-51.68,5.33-74.84,9l-2.7.43c22.14-2.71,44-5.34,65.88-7.4Q355.13,77.39,332.21,80.62Z"/><path class="cls-1" d="M434.46,67.74l4.82-.1,5.54-.28h-3.37Z"/><path class="cls-1" d="M386.49,66.27h-.63c-5.28.52-10.66,1-16.07,1.58l-23.17,3C361,69.15,375.31,67.7,386.49,66.27Z"/><path class="cls-1" d="M339.78,66.85l-6.68.73-3,.62,4.72-.49Z"/><path class="cls-1" d="M244.05,76.64l1.14.31,1.19.21a23.5,23.5,0,0,0,2.38.38l2.42.25,2.46.08a22.71,22.71,0,0,0,2.47,0l2.49-.09c1.75-.15,3.47-.26,5.23-.44,7-.69,14-1.62,21-2.56L326.14,69l4-.8c-18.44,1.95-36.71,4.46-53.34,7.11l-5.73,1c-2,.35-4.08.64-5.71.76-1.94.19-3.83.32-5.71.46-1,.09-1.84.11-2.72.13s-1.77.09-2.64.06a43.07,43.07,0,0,1-10-1.19,26.55,26.55,0,0,1-8.6-3.74,24.44,24.44,0,0,1-6.52-6.59,24.35,24.35,0,0,0,6.15,6.48,26.1,26.1,0,0,0,8.24,3.88Z"/></svg>